<?xml version="1.0" encoding="UTF-8" standalone="no"?>
<!DOCTYPE svg PUBLIC "-//W3C//DTD SVG 1.1//EN"
 "http://www.w3.org/Graphics/SVG/1.1/DTD/svg11.dtd">
<!-- Generated by graphviz version 2.43.0 (0)
 -->
<!-- Title: G Pages: 1 -->
<svg width="341pt" height="265pt"
 viewBox="0.00 0.00 341.00 265.00" xmlns="http://www.w3.org/2000/svg" xmlns:xlink="http://www.w3.org/1999/xlink">
<g id="graph0" class="graph" transform="scale(1 1) rotate(0) translate(4 261)">
<title>G</title>
<polygon fill="white" stroke="transparent" points="-4,4 -4,-261 337,-261 337,4 -4,4"/>
<g id="clust1" class="cluster">
<title>cluster_module.environments_dev.module.dev&#45;server</title>
<polygon fill="none" stroke="black" points="8,-8 8,-83 326,-83 326,-8 8,-8"/>
<text text-anchor="middle" x="167" y="-67.8" font-family="sans-serif" font-size="14.00">module.environments_dev.module.dev&#45;server</text>
</g>
<g id="clust2" class="cluster">
<title>cluster_module.environments_prod.module.prod&#45;server</title>
<polygon fill="none" stroke="black" points="0,-91 0,-166 333,-166 333,-91 0,-91"/>
<text text-anchor="middle" x="166.5" y="-150.8" font-family="sans-serif" font-size="14.00">module.environments_prod.module.prod&#45;server</text>
</g>
<g id="clust3" class="cluster">
<title>cluster_module.environments_test.module.test&#45;server</title>
<polygon fill="none" stroke="black" points="5,-174 5,-249 329,-249 329,-174 5,-174"/>
<text text-anchor="middle" x="167" y="-233.8" font-family="sans-serif" font-size="14.00">module.environments_test.module.test&#45;server</text>
</g>
<!-- module.environments_dev.module.dev&#45;server.google_compute_instance.vm_instance -->
<g id="node1" class="node">
<title>module.environments_dev.module.dev&#45;server.google_compute_instance.vm_instance</title>
<polygon fill="none" stroke="black" points="304,-52 30,-52 30,-16 304,-16 304,-52"/>
<text text-anchor="middle" x="167" y="-30.3" font-family="sans-serif" font-size="14.00">google_compute_instance.vm_instance</text>
</g>
<!-- module.environments_prod.module.prod&#45;server.google_compute_instance.vm_instance -->
<g id="node2" class="node">
<title>module.environments_prod.module.prod&#45;server.google_compute_instance.vm_instance</title>
<polygon fill="none" stroke="black" points="304,-135 30,-135 30,-99 304,-99 304,-135"/>
<text text-anchor="middle" x="167" y="-113.3" font-family="sans-serif" font-size="14.00">google_compute_instance.vm_instance</text>
</g>
<!-- module.environments_test.module.test&#45;server.google_compute_instance.vm_instance -->
<g id="node3" class="node">
<title>module.environments_test.module.test&#45;server.google_compute_instance.vm_instance</title>
<polygon fill="none" stroke="black" points="304,-218 30,-218 30,-182 304,-182 304,-218"/>
<text text-anchor="middle" x="167" y="-196.3" font-family="sans-serif" font-size="14.00">google_compute_instance.vm_instance</text>
</g>
</g>
</svg>
