<?xml version="1.0" encoding="UTF-8" standalone="no"?>
<!DOCTYPE svg PUBLIC "-//W3C//DTD SVG 1.1//EN"
 "http://www.w3.org/Graphics/SVG/1.1/DTD/svg11.dtd">
<!-- Generated by graphviz version 2.43.0 (0)
 -->
<!-- Title: %3 Pages: 1 -->
<svg width="4644pt" height="404pt"
 viewBox="0.00 0.00 4644.41 404.00" xmlns="http://www.w3.org/2000/svg" xmlns:xlink="http://www.w3.org/1999/xlink">
<g id="graph0" class="graph" transform="scale(1 1) rotate(0) translate(4 400)">
<title>%3</title>
<polygon fill="white" stroke="transparent" points="-4,4 -4,-400 4640.41,-400 4640.41,4 -4,4"/>
<!-- [root] module.databases.google_sql_database_instance.main (expand) -->
<g id="node1" class="node">
<title>[root] module.databases.google_sql_database_instance.main (expand)</title>
<polygon fill="none" stroke="black" points="3625.93,-252 3222.93,-252 3222.93,-216 3625.93,-216 3625.93,-252"/>
<text text-anchor="middle" x="3424.43" y="-230.3" font-family="Times,serif" font-size="14.00">module.databases.google_sql_database_instance.main</text>
</g>
<!-- [root] provider[&quot;registry.terraform.io/hashicorp/google&quot;] -->
<g id="node11" class="node">
<title>[root] provider[&quot;registry.terraform.io/hashicorp/google&quot;]</title>
<polygon fill="none" stroke="black" points="1958.43,-108 1614.9,-90 1958.43,-72 2301.96,-90 1958.43,-108"/>
<text text-anchor="middle" x="1958.43" y="-86.3" font-family="Times,serif" font-size="14.00">provider[&quot;registry.terraform.io/hashicorp/google&quot;]</text>
</g>
<!-- [root] module.databases.google_sql_database_instance.main (expand)&#45;&gt;[root] provider[&quot;registry.terraform.io/hashicorp/google&quot;] -->
<g id="edge6" class="edge">
<title>[root] module.databases.google_sql_database_instance.main (expand)&#45;&gt;[root] provider[&quot;registry.terraform.io/hashicorp/google&quot;]</title>
<path fill="none" stroke="black" d="M3425.12,-215.69C3424.9,-194.98 3420.99,-160.97 3399.43,-144 3387.58,-134.67 2576.97,-109.35 2176.91,-97.41"/>
<polygon fill="black" stroke="black" points="2176.76,-93.9 2166.66,-97.1 2176.55,-100.9 2176.76,-93.9"/>
</g>
<!-- [root] module.databases.var.region (expand) -->
<g id="node16" class="node">
<title>[root] module.databases.var.region (expand)</title>
<ellipse fill="none" stroke="black" cx="3662.43" cy="-162" rx="216.36" ry="18"/>
<text text-anchor="middle" x="3662.43" y="-158.3" font-family="Times,serif" font-size="14.00">[root] module.databases.var.region (expand)</text>
</g>
<!-- [root] module.databases.google_sql_database_instance.main (expand)&#45;&gt;[root] module.databases.var.region (expand) -->
<g id="edge5" class="edge">
<title>[root] module.databases.google_sql_database_instance.main (expand)&#45;&gt;[root] module.databases.var.region (expand)</title>
<path fill="none" stroke="black" d="M3482.35,-215.97C3516.81,-205.83 3560.65,-192.94 3596.44,-182.41"/>
<polygon fill="black" stroke="black" points="3597.7,-185.69 3606.31,-179.51 3595.73,-178.97 3597.7,-185.69"/>
</g>
<!-- [root] module.instances.google_compute_instance.tf&#45;instance&#45;1 (expand) -->
<g id="node2" class="node">
<title>[root] module.instances.google_compute_instance.tf&#45;instance&#45;1 (expand)</title>
<polygon fill="none" stroke="black" points="672.93,-252 251.93,-252 251.93,-216 672.93,-216 672.93,-252"/>
<text text-anchor="middle" x="462.43" y="-230.3" font-family="Times,serif" font-size="14.00">module.instances.google_compute_instance.tf&#45;instance&#45;1</text>
</g>
<!-- [root] module.instances.google_compute_instance.tf&#45;instance&#45;1 (expand)&#45;&gt;[root] provider[&quot;registry.terraform.io/hashicorp/google&quot;] -->
<g id="edge18" class="edge">
<title>[root] module.instances.google_compute_instance.tf&#45;instance&#45;1 (expand)&#45;&gt;[root] provider[&quot;registry.terraform.io/hashicorp/google&quot;]</title>
<path fill="none" stroke="black" d="M251.54,-223.14C174.54,-212.13 115.99,-189.6 160.43,-144 187.48,-116.24 1516.69,-109.32 1555.43,-108 1627.14,-105.56 1706,-102.35 1774.81,-99.38"/>
<polygon fill="black" stroke="black" points="1775.05,-102.87 1784.89,-98.94 1774.74,-95.88 1775.05,-102.87"/>
</g>
<!-- [root] module.instances.var.tf_vpc_network (expand) -->
<g id="node20" class="node">
<title>[root] module.instances.var.tf_vpc_network (expand)</title>
<ellipse fill="none" stroke="black" cx="423.43" cy="-162" rx="254.25" ry="18"/>
<text text-anchor="middle" x="423.43" y="-158.3" font-family="Times,serif" font-size="14.00">[root] module.instances.var.tf_vpc_network (expand)</text>
</g>
<!-- [root] module.instances.google_compute_instance.tf&#45;instance&#45;1 (expand)&#45;&gt;[root] module.instances.var.tf_vpc_network (expand) -->
<g id="edge16" class="edge">
<title>[root] module.instances.google_compute_instance.tf&#45;instance&#45;1 (expand)&#45;&gt;[root] module.instances.var.tf_vpc_network (expand)</title>
<path fill="none" stroke="black" d="M452.79,-215.7C448.3,-207.64 442.87,-197.89 437.91,-188.98"/>
<polygon fill="black" stroke="black" points="440.88,-187.14 432.96,-180.1 434.77,-190.54 440.88,-187.14"/>
</g>
<!-- [root] module.instances.var.zone (expand) -->
<g id="node21" class="node">
<title>[root] module.instances.var.zone (expand)</title>
<ellipse fill="none" stroke="black" cx="901.43" cy="-162" rx="205.26" ry="18"/>
<text text-anchor="middle" x="901.43" y="-158.3" font-family="Times,serif" font-size="14.00">[root] module.instances.var.zone (expand)</text>
</g>
<!-- [root] module.instances.google_compute_instance.tf&#45;instance&#45;1 (expand)&#45;&gt;[root] module.instances.var.zone (expand) -->
<g id="edge17" class="edge">
<title>[root] module.instances.google_compute_instance.tf&#45;instance&#45;1 (expand)&#45;&gt;[root] module.instances.var.zone (expand)</title>
<path fill="none" stroke="black" d="M569.26,-215.97C638.56,-204.91 728.43,-190.59 797.21,-179.62"/>
<polygon fill="black" stroke="black" points="797.88,-183.06 807.2,-178.03 796.77,-176.14 797.88,-183.06"/>
</g>
<!-- [root] module.instances.google_compute_instance.tf&#45;instance&#45;2 (expand) -->
<g id="node3" class="node">
<title>[root] module.instances.google_compute_instance.tf&#45;instance&#45;2 (expand)</title>
<polygon fill="none" stroke="black" points="1111.93,-252 690.93,-252 690.93,-216 1111.93,-216 1111.93,-252"/>
<text text-anchor="middle" x="901.43" y="-230.3" font-family="Times,serif" font-size="14.00">module.instances.google_compute_instance.tf&#45;instance&#45;2</text>
</g>
<!-- [root] module.instances.google_compute_instance.tf&#45;instance&#45;2 (expand)&#45;&gt;[root] provider[&quot;registry.terraform.io/hashicorp/google&quot;] -->
<g id="edge21" class="edge">
<title>[root] module.instances.google_compute_instance.tf&#45;instance&#45;2 (expand)&#45;&gt;[root] provider[&quot;registry.terraform.io/hashicorp/google&quot;]</title>
<path fill="none" stroke="black" d="M1112.32,-216.02C1281.53,-202.14 1492.38,-184.15 1501.43,-180 1522.29,-170.44 1517.76,-153.95 1538.43,-144 1583.25,-122.43 1698.08,-108.85 1796.36,-100.85"/>
<polygon fill="black" stroke="black" points="1796.74,-104.33 1806.43,-100.04 1796.18,-97.35 1796.74,-104.33"/>
</g>
<!-- [root] module.instances.google_compute_instance.tf&#45;instance&#45;2 (expand)&#45;&gt;[root] module.instances.var.tf_vpc_network (expand) -->
<g id="edge19" class="edge">
<title>[root] module.instances.google_compute_instance.tf&#45;instance&#45;2 (expand)&#45;&gt;[root] module.instances.var.tf_vpc_network (expand)</title>
<path fill="none" stroke="black" d="M785.11,-215.97C710.26,-205 613.4,-190.82 538.75,-179.89"/>
<polygon fill="black" stroke="black" points="539.23,-176.42 528.83,-178.44 538.22,-183.35 539.23,-176.42"/>
</g>
<!-- [root] module.instances.google_compute_instance.tf&#45;instance&#45;2 (expand)&#45;&gt;[root] module.instances.var.zone (expand) -->
<g id="edge20" class="edge">
<title>[root] module.instances.google_compute_instance.tf&#45;instance&#45;2 (expand)&#45;&gt;[root] module.instances.var.zone (expand)</title>
<path fill="none" stroke="black" d="M901.43,-215.7C901.43,-207.98 901.43,-198.71 901.43,-190.11"/>
<polygon fill="black" stroke="black" points="904.93,-190.1 901.43,-180.1 897.93,-190.1 904.93,-190.1"/>
</g>
<!-- [root] module.instances.google_compute_instance.tf&#45;instance&#45;610252 (expand) -->
<g id="node4" class="node">
<title>[root] module.instances.google_compute_instance.tf&#45;instance&#45;610252 (expand)</title>
<polygon fill="none" stroke="black" points="1596.43,-252 1130.43,-252 1130.43,-216 1596.43,-216 1596.43,-252"/>
<text text-anchor="middle" x="1363.43" y="-230.3" font-family="Times,serif" font-size="14.00">module.instances.google_compute_instance.tf&#45;instance&#45;610252</text>
</g>
<!-- [root] module.instances.google_compute_instance.tf&#45;instance&#45;610252 (expand)&#45;&gt;[root] provider[&quot;registry.terraform.io/hashicorp/google&quot;] -->
<g id="edge23" class="edge">
<title>[root] module.instances.google_compute_instance.tf&#45;instance&#45;610252 (expand)&#45;&gt;[root] provider[&quot;registry.terraform.io/hashicorp/google&quot;]</title>
<path fill="none" stroke="black" d="M1580.36,-215.99C1740.73,-202.95 1932.48,-186.17 1939.43,-180 1956.55,-164.79 1960.38,-138.28 1960.47,-118.13"/>
<polygon fill="black" stroke="black" points="1963.97,-117.9 1960.22,-107.99 1956.97,-118.07 1963.97,-117.9"/>
</g>
<!-- [root] module.instances.google_compute_instance.tf&#45;instance&#45;610252 (expand)&#45;&gt;[root] module.instances.var.zone (expand) -->
<g id="edge22" class="edge">
<title>[root] module.instances.google_compute_instance.tf&#45;instance&#45;610252 (expand)&#45;&gt;[root] module.instances.var.zone (expand)</title>
<path fill="none" stroke="black" d="M1251,-215.97C1177.53,-204.83 1082.11,-190.38 1009.53,-179.38"/>
<polygon fill="black" stroke="black" points="1009.85,-175.89 999.44,-177.85 1008.81,-182.81 1009.85,-175.89"/>
</g>
<!-- [root] module.instances.google_container_cluster.primary (expand) -->
<g id="node5" class="node">
<title>[root] module.instances.google_container_cluster.primary (expand)</title>
<polygon fill="none" stroke="black" points="1930.93,-180 1547.93,-180 1547.93,-144 1930.93,-144 1930.93,-180"/>
<text text-anchor="middle" x="1739.43" y="-158.3" font-family="Times,serif" font-size="14.00">module.instances.google_container_cluster.primary</text>
</g>
<!-- [root] module.instances.google_container_cluster.primary (expand)&#45;&gt;[root] provider[&quot;registry.terraform.io/hashicorp/google&quot;] -->
<g id="edge25" class="edge">
<title>[root] module.instances.google_container_cluster.primary (expand)&#45;&gt;[root] provider[&quot;registry.terraform.io/hashicorp/google&quot;]</title>
<path fill="none" stroke="black" d="M1792.72,-143.97C1826.14,-133.28 1869.14,-119.54 1902.96,-108.73"/>
<polygon fill="black" stroke="black" points="1904.23,-112 1912.69,-105.62 1902.1,-105.33 1904.23,-112"/>
</g>
<!-- [root] module.instances.var.region (expand) -->
<g id="node22" class="node">
<title>[root] module.instances.var.region (expand)</title>
<ellipse fill="none" stroke="black" cx="1332.43" cy="-90" rx="213.66" ry="18"/>
<text text-anchor="middle" x="1332.43" y="-86.3" font-family="Times,serif" font-size="14.00">[root] module.instances.var.region (expand)</text>
</g>
<!-- [root] module.instances.google_container_cluster.primary (expand)&#45;&gt;[root] module.instances.var.region (expand) -->
<g id="edge24" class="edge">
<title>[root] module.instances.google_container_cluster.primary (expand)&#45;&gt;[root] module.instances.var.region (expand)</title>
<path fill="none" stroke="black" d="M1640.39,-143.97C1577.07,-133.08 1495.24,-119 1431.84,-108.1"/>
<polygon fill="black" stroke="black" points="1432.28,-104.62 1421.83,-106.38 1431.1,-111.52 1432.28,-104.62"/>
</g>
<!-- [root] module.instances.google_container_node_pool.gke_instance (expand) -->
<g id="node6" class="node">
<title>[root] module.instances.google_container_node_pool.gke_instance (expand)</title>
<polygon fill="none" stroke="black" points="2056.43,-252 1614.43,-252 1614.43,-216 2056.43,-216 2056.43,-252"/>
<text text-anchor="middle" x="1835.43" y="-230.3" font-family="Times,serif" font-size="14.00">module.instances.google_container_node_pool.gke_instance</text>
</g>
<!-- [root] module.instances.google_container_node_pool.gke_instance (expand)&#45;&gt;[root] module.instances.google_container_cluster.primary (expand) -->
<g id="edge26" class="edge">
<title>[root] module.instances.google_container_node_pool.gke_instance (expand)&#45;&gt;[root] module.instances.google_container_cluster.primary (expand)</title>
<path fill="none" stroke="black" d="M1811.7,-215.7C1799.49,-206.8 1784.44,-195.82 1771.25,-186.2"/>
<polygon fill="black" stroke="black" points="1773.03,-183.17 1762.89,-180.1 1768.9,-188.82 1773.03,-183.17"/>
</g>
<!-- [root] module.instances.google_service_account.default (expand) -->
<g id="node7" class="node">
<title>[root] module.instances.google_service_account.default (expand)</title>
<polygon fill="none" stroke="black" points="1492.43,-180 1124.43,-180 1124.43,-144 1492.43,-144 1492.43,-180"/>
<text text-anchor="middle" x="1308.43" y="-158.3" font-family="Times,serif" font-size="14.00">module.instances.google_service_account.default</text>
</g>
<!-- [root] module.instances.google_container_node_pool.gke_instance (expand)&#45;&gt;[root] module.instances.google_service_account.default (expand) -->
<g id="edge27" class="edge">
<title>[root] module.instances.google_container_node_pool.gke_instance (expand)&#45;&gt;[root] module.instances.google_service_account.default (expand)</title>
<path fill="none" stroke="black" d="M1707.18,-215.97C1628.44,-205.51 1527.59,-192.11 1447.02,-181.41"/>
<polygon fill="black" stroke="black" points="1447.17,-177.9 1436.79,-180.05 1446.24,-184.84 1447.17,-177.9"/>
</g>
<!-- [root] module.instances.google_service_account.default (expand)&#45;&gt;[root] provider[&quot;registry.terraform.io/hashicorp/google&quot;] -->
<g id="edge29" class="edge">
<title>[root] module.instances.google_service_account.default (expand)&#45;&gt;[root] provider[&quot;registry.terraform.io/hashicorp/google&quot;]</title>
<path fill="none" stroke="black" d="M1466.61,-143.97C1582.55,-131.48 1737.37,-114.81 1842.09,-103.53"/>
<polygon fill="black" stroke="black" points="1842.5,-107 1852.07,-102.45 1841.75,-100.05 1842.5,-107"/>
</g>
<!-- [root] module.instances (expand) -->
<g id="node23" class="node">
<title>[root] module.instances (expand)</title>
<ellipse fill="none" stroke="black" cx="901.43" cy="-18" rx="163.57" ry="18"/>
<text text-anchor="middle" x="901.43" y="-14.3" font-family="Times,serif" font-size="14.00">[root] module.instances (expand)</text>
</g>
<!-- [root] module.instances.google_service_account.default (expand)&#45;&gt;[root] module.instances (expand) -->
<g id="edge28" class="edge">
<title>[root] module.instances.google_service_account.default (expand)&#45;&gt;[root] module.instances (expand)</title>
<path fill="none" stroke="black" d="M1234.42,-143.99C1196.63,-134.62 1150.16,-122.05 1109.43,-108 1051.56,-88.03 987.06,-59.39 945.45,-40.03"/>
<polygon fill="black" stroke="black" points="946.7,-36.75 936.15,-35.69 943.73,-43.09 946.7,-36.75"/>
</g>
<!-- [root] module.storage.google_storage_bucket.example&#45;variable (expand) -->
<g id="node8" class="node">
<title>[root] module.storage.google_storage_bucket.example&#45;variable (expand)</title>
<polygon fill="none" stroke="black" points="2534.43,-252 2112.43,-252 2112.43,-216 2534.43,-216 2534.43,-252"/>
<text text-anchor="middle" x="2323.43" y="-230.3" font-family="Times,serif" font-size="14.00">module.storage.google_storage_bucket.example&#45;variable</text>
</g>
<!-- [root] module.storage.google_storage_bucket.example&#45;variable (expand)&#45;&gt;[root] provider[&quot;registry.terraform.io/hashicorp/google&quot;] -->
<g id="edge38" class="edge">
<title>[root] module.storage.google_storage_bucket.example&#45;variable (expand)&#45;&gt;[root] provider[&quot;registry.terraform.io/hashicorp/google&quot;]</title>
<path fill="none" stroke="black" d="M2153.97,-215.99C2095.78,-207.61 2039.28,-195.82 2015.43,-180 1992.83,-165.01 1977.33,-137.66 1968.26,-117.22"/>
<polygon fill="black" stroke="black" points="1971.41,-115.69 1964.32,-107.82 1964.96,-118.4 1971.41,-115.69"/>
</g>
<!-- [root] module.storage.var.bucket&#45;loc (expand) -->
<g id="node25" class="node">
<title>[root] module.storage.var.bucket&#45;loc (expand)</title>
<ellipse fill="none" stroke="black" cx="2744.43" cy="-162" rx="222.06" ry="18"/>
<text text-anchor="middle" x="2744.43" y="-158.3" font-family="Times,serif" font-size="14.00">[root] module.storage.var.bucket&#45;loc (expand)</text>
</g>
<!-- [root] module.storage.google_storage_bucket.example&#45;variable (expand)&#45;&gt;[root] module.storage.var.bucket&#45;loc (expand) -->
<g id="edge37" class="edge">
<title>[root] module.storage.google_storage_bucket.example&#45;variable (expand)&#45;&gt;[root] module.storage.var.bucket&#45;loc (expand)</title>
<path fill="none" stroke="black" d="M2425.88,-215.97C2491.51,-205.05 2576.37,-190.94 2642,-180.03"/>
<polygon fill="black" stroke="black" points="2642.66,-183.47 2651.95,-178.38 2641.51,-176.56 2642.66,-183.47"/>
</g>
<!-- [root] module.storage.google_storage_bucket.storage&#45;bucket (expand) -->
<g id="node9" class="node">
<title>[root] module.storage.google_storage_bucket.storage&#45;bucket (expand)</title>
<polygon fill="none" stroke="black" points="3390.43,-180 2984.43,-180 2984.43,-144 3390.43,-144 3390.43,-180"/>
<text text-anchor="middle" x="3187.43" y="-158.3" font-family="Times,serif" font-size="14.00">module.storage.google_storage_bucket.storage&#45;bucket</text>
</g>
<!-- [root] module.storage.google_storage_bucket.storage&#45;bucket (expand)&#45;&gt;[root] provider[&quot;registry.terraform.io/hashicorp/google&quot;] -->
<g id="edge40" class="edge">
<title>[root] module.storage.google_storage_bucket.storage&#45;bucket (expand)&#45;&gt;[root] provider[&quot;registry.terraform.io/hashicorp/google&quot;]</title>
<path fill="none" stroke="black" d="M2984.34,-144.6C2981.35,-144.39 2978.38,-144.19 2975.43,-144 2686.14,-124.87 2350.18,-108.5 2146.03,-99.2"/>
<polygon fill="black" stroke="black" points="2145.96,-95.7 2135.81,-98.74 2145.64,-102.69 2145.96,-95.7"/>
</g>
<!-- [root] module.storage (expand) -->
<g id="node26" class="node">
<title>[root] module.storage (expand)</title>
<ellipse fill="none" stroke="black" cx="2744.43" cy="-90" rx="155.17" ry="18"/>
<text text-anchor="middle" x="2744.43" y="-86.3" font-family="Times,serif" font-size="14.00">[root] module.storage (expand)</text>
</g>
<!-- [root] module.storage.google_storage_bucket.storage&#45;bucket (expand)&#45;&gt;[root] module.storage (expand) -->
<g id="edge39" class="edge">
<title>[root] module.storage.google_storage_bucket.storage&#45;bucket (expand)&#45;&gt;[root] module.storage (expand)</title>
<path fill="none" stroke="black" d="M3079.63,-143.97C3007.25,-132.53 2912.65,-117.58 2842.41,-106.48"/>
<polygon fill="black" stroke="black" points="2842.65,-102.98 2832.23,-104.87 2841.56,-109.89 2842.65,-102.98"/>
</g>
<!-- [root] module.storage.google_storage_bucket.storage&#45;bucket&#45;example2 (expand) -->
<g id="node10" class="node">
<title>[root] module.storage.google_storage_bucket.storage&#45;bucket&#45;example2 (expand)</title>
<polygon fill="none" stroke="black" points="2503.93,-180 2024.93,-180 2024.93,-144 2503.93,-144 2503.93,-180"/>
<text text-anchor="middle" x="2264.43" y="-158.3" font-family="Times,serif" font-size="14.00">module.storage.google_storage_bucket.storage&#45;bucket&#45;example2</text>
</g>
<!-- [root] module.storage.google_storage_bucket.storage&#45;bucket&#45;example2 (expand)&#45;&gt;[root] provider[&quot;registry.terraform.io/hashicorp/google&quot;] -->
<g id="edge42" class="edge">
<title>[root] module.storage.google_storage_bucket.storage&#45;bucket&#45;example2 (expand)&#45;&gt;[root] provider[&quot;registry.terraform.io/hashicorp/google&quot;]</title>
<path fill="none" stroke="black" d="M2189.96,-143.97C2141.08,-132.78 2077.51,-118.24 2029.36,-107.23"/>
<polygon fill="black" stroke="black" points="2029.85,-103.75 2019.33,-104.93 2028.29,-110.57 2029.85,-103.75"/>
</g>
<!-- [root] module.storage.google_storage_bucket.storage&#45;bucket&#45;example2 (expand)&#45;&gt;[root] module.storage (expand) -->
<g id="edge41" class="edge">
<title>[root] module.storage.google_storage_bucket.storage&#45;bucket&#45;example2 (expand)&#45;&gt;[root] module.storage (expand)</title>
<path fill="none" stroke="black" d="M2381.24,-143.97C2460.91,-132.35 2565.44,-117.1 2641.89,-105.95"/>
<polygon fill="black" stroke="black" points="2642.62,-109.38 2652.01,-104.48 2641.61,-102.46 2642.62,-109.38"/>
</g>
<!-- [root] module.databases (close) -->
<g id="node12" class="node">
<title>[root] module.databases (close)</title>
<ellipse fill="none" stroke="black" cx="3660.43" cy="-306" rx="156.77" ry="18"/>
<text text-anchor="middle" x="3660.43" y="-302.3" font-family="Times,serif" font-size="14.00">[root] module.databases (close)</text>
</g>
<!-- [root] module.databases (close)&#45;&gt;[root] module.databases.google_sql_database_instance.main (expand) -->
<g id="edge1" class="edge">
<title>[root] module.databases (close)&#45;&gt;[root] module.databases.google_sql_database_instance.main (expand)</title>
<path fill="none" stroke="black" d="M3606.58,-289.03C3572.51,-278.92 3528.19,-265.78 3491.79,-254.98"/>
<polygon fill="black" stroke="black" points="3492.34,-251.49 3481.75,-252 3490.34,-258.2 3492.34,-251.49"/>
</g>
<!-- [root] module.databases.var.project_id (expand) -->
<g id="node13" class="node">
<title>[root] module.databases.var.project_id (expand)</title>
<ellipse fill="none" stroke="black" cx="4129.43" cy="-162" rx="232.86" ry="18"/>
<text text-anchor="middle" x="4129.43" y="-158.3" font-family="Times,serif" font-size="14.00">[root] module.databases.var.project_id (expand)</text>
</g>
<!-- [root] module.databases (close)&#45;&gt;[root] module.databases.var.project_id (expand) -->
<g id="edge2" class="edge">
<title>[root] module.databases (close)&#45;&gt;[root] module.databases.var.project_id (expand)</title>
<path fill="none" stroke="black" d="M3658.7,-287.74C3657.71,-267.4 3659.57,-234.09 3679.43,-216 3690.51,-205.9 3848.07,-189.03 3973.66,-177.03"/>
<polygon fill="black" stroke="black" points="3974.17,-180.5 3983.79,-176.07 3973.51,-173.53 3974.17,-180.5"/>
</g>
<!-- [root] module.databases.var.tf_vpc_network (expand) -->
<g id="node14" class="node">
<title>[root] module.databases.var.tf_vpc_network (expand)</title>
<ellipse fill="none" stroke="black" cx="3945.43" cy="-234" rx="256.95" ry="18"/>
<text text-anchor="middle" x="3945.43" y="-230.3" font-family="Times,serif" font-size="14.00">[root] module.databases.var.tf_vpc_network (expand)</text>
</g>
<!-- [root] module.databases (close)&#45;&gt;[root] module.databases.var.tf_vpc_network (expand) -->
<g id="edge3" class="edge">
<title>[root] module.databases (close)&#45;&gt;[root] module.databases.var.tf_vpc_network (expand)</title>
<path fill="none" stroke="black" d="M3723.68,-289.46C3766.46,-278.96 3823.21,-265.02 3868.59,-253.87"/>
<polygon fill="black" stroke="black" points="3869.51,-257.25 3878.38,-251.47 3867.84,-250.45 3869.51,-257.25"/>
</g>
<!-- [root] module.databases.var.zone (expand) -->
<g id="node15" class="node">
<title>[root] module.databases.var.zone (expand)</title>
<ellipse fill="none" stroke="black" cx="4428.43" cy="-234" rx="207.96" ry="18"/>
<text text-anchor="middle" x="4428.43" y="-230.3" font-family="Times,serif" font-size="14.00">[root] module.databases.var.zone (expand)</text>
</g>
<!-- [root] module.databases (close)&#45;&gt;[root] module.databases.var.zone (expand) -->
<g id="edge4" class="edge">
<title>[root] module.databases (close)&#45;&gt;[root] module.databases.var.zone (expand)</title>
<path fill="none" stroke="black" d="M3779.17,-294.18C3914.13,-281.88 4134.6,-261.78 4280.6,-248.47"/>
<polygon fill="black" stroke="black" points="4281.34,-251.92 4290.98,-247.53 4280.71,-244.95 4281.34,-251.92"/>
</g>
<!-- [root] module.databases (expand) -->
<g id="node17" class="node">
<title>[root] module.databases (expand)</title>
<ellipse fill="none" stroke="black" cx="4259.43" cy="-90" rx="167.07" ry="18"/>
<text text-anchor="middle" x="4259.43" y="-86.3" font-family="Times,serif" font-size="14.00">[root] module.databases (expand)</text>
</g>
<!-- [root] module.databases.var.project_id (expand)&#45;&gt;[root] module.databases (expand) -->
<g id="edge7" class="edge">
<title>[root] module.databases.var.project_id (expand)&#45;&gt;[root] module.databases (expand)</title>
<path fill="none" stroke="black" d="M4160.9,-144.05C4178.46,-134.6 4200.53,-122.72 4219.32,-112.6"/>
<polygon fill="black" stroke="black" points="4221.1,-115.61 4228.25,-107.79 4217.79,-109.45 4221.1,-115.61"/>
</g>
<!-- [root] module.databases.var.tf_vpc_network (expand)&#45;&gt;[root] module.databases (expand) -->
<g id="edge9" class="edge">
<title>[root] module.databases.var.tf_vpc_network (expand)&#45;&gt;[root] module.databases (expand)</title>
<path fill="none" stroke="black" d="M4128.92,-221.38C4236.57,-212.64 4354.73,-198.9 4371.43,-180 4382.02,-168.01 4379.99,-157.52 4371.43,-144 4362.15,-129.34 4347.59,-118.65 4332.01,-110.9"/>
<polygon fill="black" stroke="black" points="4333.3,-107.64 4322.75,-106.66 4330.39,-114 4333.3,-107.64"/>
</g>
<!-- [root] module.databases.var.zone (expand)&#45;&gt;[root] module.databases (expand) -->
<g id="edge10" class="edge">
<title>[root] module.databases.var.zone (expand)&#45;&gt;[root] module.databases (expand)</title>
<path fill="none" stroke="black" d="M4428.31,-215.71C4427.25,-195.96 4422.6,-163.82 4404.43,-144 4389.89,-128.14 4370.21,-117.01 4350.04,-109.21"/>
<polygon fill="black" stroke="black" points="4351.04,-105.85 4340.44,-105.75 4348.66,-112.43 4351.04,-105.85"/>
</g>
<!-- [root] module.databases.var.region (expand)&#45;&gt;[root] module.databases (expand) -->
<g id="edge8" class="edge">
<title>[root] module.databases.var.region (expand)&#45;&gt;[root] module.databases (expand)</title>
<path fill="none" stroke="black" d="M3782.16,-146.96C3886.42,-134.74 4036.75,-117.11 4140.71,-104.92"/>
<polygon fill="black" stroke="black" points="4141.41,-108.36 4150.94,-103.72 4140.6,-101.41 4141.41,-108.36"/>
</g>
<!-- [root] module.instances (close) -->
<g id="node18" class="node">
<title>[root] module.instances (close)</title>
<ellipse fill="none" stroke="black" cx="1132.43" cy="-306" rx="153.27" ry="18"/>
<text text-anchor="middle" x="1132.43" y="-302.3" font-family="Times,serif" font-size="14.00">[root] module.instances (close)</text>
</g>
<!-- [root] module.instances (close)&#45;&gt;[root] module.instances.google_compute_instance.tf&#45;instance&#45;1 (expand) -->
<g id="edge11" class="edge">
<title>[root] module.instances (close)&#45;&gt;[root] module.instances.google_compute_instance.tf&#45;instance&#45;1 (expand)</title>
<path fill="none" stroke="black" d="M1022.17,-293.48C917.12,-282.5 757.35,-265.81 635.36,-253.07"/>
<polygon fill="black" stroke="black" points="635.47,-249.56 625.16,-252 634.74,-256.52 635.47,-249.56"/>
</g>
<!-- [root] module.instances (close)&#45;&gt;[root] module.instances.google_compute_instance.tf&#45;instance&#45;2 (expand) -->
<g id="edge12" class="edge">
<title>[root] module.instances (close)&#45;&gt;[root] module.instances.google_compute_instance.tf&#45;instance&#45;2 (expand)</title>
<path fill="none" stroke="black" d="M1079.72,-289.03C1046.37,-278.92 1002.99,-265.78 967.37,-254.98"/>
<polygon fill="black" stroke="black" points="968.12,-251.55 957.54,-252 966.09,-258.25 968.12,-251.55"/>
</g>
<!-- [root] module.instances (close)&#45;&gt;[root] module.instances.google_compute_instance.tf&#45;instance&#45;610252 (expand) -->
<g id="edge13" class="edge">
<title>[root] module.instances (close)&#45;&gt;[root] module.instances.google_compute_instance.tf&#45;instance&#45;610252 (expand)</title>
<path fill="none" stroke="black" d="M1185.14,-289.03C1218.49,-278.92 1261.87,-265.78 1297.49,-254.98"/>
<polygon fill="black" stroke="black" points="1298.77,-258.25 1307.32,-252 1296.74,-251.55 1298.77,-258.25"/>
</g>
<!-- [root] module.instances (close)&#45;&gt;[root] module.instances.google_container_node_pool.gke_instance (expand) -->
<g id="edge14" class="edge">
<title>[root] module.instances (close)&#45;&gt;[root] module.instances.google_container_node_pool.gke_instance (expand)</title>
<path fill="none" stroke="black" d="M1245.38,-293.75C1355.74,-282.76 1525.51,-265.86 1654.66,-253"/>
<polygon fill="black" stroke="black" points="1655.06,-256.48 1664.67,-252 1654.37,-249.51 1655.06,-256.48"/>
</g>
<!-- [root] module.instances.var.project_id (expand) -->
<g id="node19" class="node">
<title>[root] module.instances.var.project_id (expand)</title>
<ellipse fill="none" stroke="black" cx="229.43" cy="-90" rx="229.36" ry="18"/>
<text text-anchor="middle" x="229.43" y="-86.3" font-family="Times,serif" font-size="14.00">[root] module.instances.var.project_id (expand)</text>
</g>
<!-- [root] module.instances (close)&#45;&gt;[root] module.instances.var.project_id (expand) -->
<g id="edge15" class="edge">
<title>[root] module.instances (close)&#45;&gt;[root] module.instances.var.project_id (expand)</title>
<path fill="none" stroke="black" d="M985.83,-300.7C751.14,-293.15 310.44,-276.01 242.43,-252 190.45,-233.65 166.68,-229.01 141.43,-180 134.1,-165.78 133.56,-157.93 141.43,-144 148.84,-130.88 160.95,-120.65 173.85,-112.82"/>
<polygon fill="black" stroke="black" points="175.83,-115.72 182.85,-107.79 172.41,-109.61 175.83,-115.72"/>
</g>
<!-- [root] module.instances.var.project_id (expand)&#45;&gt;[root] module.instances (expand) -->
<g id="edge30" class="edge">
<title>[root] module.instances.var.project_id (expand)&#45;&gt;[root] module.instances (expand)</title>
<path fill="none" stroke="black" d="M361.39,-75.25C481.92,-62.7 658.81,-44.27 776.93,-31.97"/>
<polygon fill="black" stroke="black" points="777.52,-35.43 787.1,-30.91 776.8,-28.46 777.52,-35.43"/>
</g>
<!-- [root] module.instances.var.tf_vpc_network (expand)&#45;&gt;[root] module.instances (expand) -->
<g id="edge32" class="edge">
<title>[root] module.instances.var.tf_vpc_network (expand)&#45;&gt;[root] module.instances (expand)</title>
<path fill="none" stroke="black" d="M479.2,-144.43C568.63,-117.86 743.61,-65.88 837.79,-37.9"/>
<polygon fill="black" stroke="black" points="838.89,-41.23 847.48,-35.03 836.9,-34.52 838.89,-41.23"/>
</g>
<!-- [root] module.instances.var.zone (expand)&#45;&gt;[root] module.instances (expand) -->
<g id="edge33" class="edge">
<title>[root] module.instances.var.zone (expand)&#45;&gt;[root] module.instances (expand)</title>
<path fill="none" stroke="black" d="M901.43,-143.87C901.43,-119.67 901.43,-75.21 901.43,-46.39"/>
<polygon fill="black" stroke="black" points="904.93,-46.19 901.43,-36.19 897.93,-46.19 904.93,-46.19"/>
</g>
<!-- [root] module.instances.var.region (expand)&#45;&gt;[root] module.instances (expand) -->
<g id="edge31" class="edge">
<title>[root] module.instances.var.region (expand)&#45;&gt;[root] module.instances (expand)</title>
<path fill="none" stroke="black" d="M1238.91,-73.81C1168.09,-62.31 1071.07,-46.55 999.22,-34.88"/>
<polygon fill="black" stroke="black" points="999.69,-31.41 989.26,-33.26 998.57,-38.32 999.69,-31.41"/>
</g>
<!-- [root] module.storage (close) -->
<g id="node24" class="node">
<title>[root] module.storage (close)</title>
<ellipse fill="none" stroke="black" cx="2557.43" cy="-306" rx="144.87" ry="18"/>
<text text-anchor="middle" x="2557.43" y="-302.3" font-family="Times,serif" font-size="14.00">[root] module.storage (close)</text>
</g>
<!-- [root] module.storage (close)&#45;&gt;[root] module.storage.google_storage_bucket.example&#45;variable (expand) -->
<g id="edge34" class="edge">
<title>[root] module.storage (close)&#45;&gt;[root] module.storage.google_storage_bucket.example&#45;variable (expand)</title>
<path fill="none" stroke="black" d="M2504.62,-289.2C2470.86,-279.1 2426.78,-265.92 2390.54,-255.08"/>
<polygon fill="black" stroke="black" points="2391.13,-251.6 2380.55,-252.09 2389.12,-258.31 2391.13,-251.6"/>
</g>
<!-- [root] module.storage (close)&#45;&gt;[root] module.storage.google_storage_bucket.storage&#45;bucket (expand) -->
<g id="edge35" class="edge">
<title>[root] module.storage (close)&#45;&gt;[root] module.storage.google_storage_bucket.storage&#45;bucket (expand)</title>
<path fill="none" stroke="black" d="M2623.96,-290C2738.98,-264.08 2974.86,-210.91 3101.9,-182.28"/>
<polygon fill="black" stroke="black" points="3102.99,-185.62 3111.98,-180.01 3101.45,-178.79 3102.99,-185.62"/>
</g>
<!-- [root] module.storage (close)&#45;&gt;[root] module.storage.google_storage_bucket.storage&#45;bucket&#45;example2 (expand) -->
<g id="edge36" class="edge">
<title>[root] module.storage (close)&#45;&gt;[root] module.storage.google_storage_bucket.storage&#45;bucket&#45;example2 (expand)</title>
<path fill="none" stroke="black" d="M2560.05,-287.73C2562.03,-267.69 2561.82,-234.99 2543.43,-216 2528.59,-200.68 2491.92,-189.67 2449.87,-181.79"/>
<polygon fill="black" stroke="black" points="2450.41,-178.33 2439.95,-180.01 2449.17,-185.22 2450.41,-178.33"/>
</g>
<!-- [root] module.storage.var.bucket&#45;loc (expand)&#45;&gt;[root] module.storage (expand) -->
<g id="edge43" class="edge">
<title>[root] module.storage.var.bucket&#45;loc (expand)&#45;&gt;[root] module.storage (expand)</title>
<path fill="none" stroke="black" d="M2744.43,-143.7C2744.43,-135.98 2744.43,-126.71 2744.43,-118.11"/>
<polygon fill="black" stroke="black" points="2747.93,-118.1 2744.43,-108.1 2740.93,-118.1 2747.93,-118.1"/>
</g>
<!-- [root] provider[&quot;registry.terraform.io/hashicorp/google&quot;] (close) -->
<g id="node27" class="node">
<title>[root] provider[&quot;registry.terraform.io/hashicorp/google&quot;] (close)</title>
<ellipse fill="none" stroke="black" cx="2084.43" cy="-306" rx="304.65" ry="18"/>
<text text-anchor="middle" x="2084.43" y="-302.3" font-family="Times,serif" font-size="14.00">[root] provider[&quot;registry.terraform.io/hashicorp/google&quot;] (close)</text>
</g>
<!-- [root] provider[&quot;registry.terraform.io/hashicorp/google&quot;] (close)&#45;&gt;[root] module.databases.google_sql_database_instance.main (expand) -->
<g id="edge44" class="edge">
<title>[root] provider[&quot;registry.terraform.io/hashicorp/google&quot;] (close)&#45;&gt;[root] module.databases.google_sql_database_instance.main (expand)</title>
<path fill="none" stroke="black" d="M2301.93,-293.37C2335.9,-291.56 2370.61,-289.73 2403.43,-288 2683.11,-273.29 3005.91,-256.58 3212.42,-245.92"/>
<polygon fill="black" stroke="black" points="3212.66,-249.41 3222.47,-245.4 3212.3,-242.42 3212.66,-249.41"/>
</g>
<!-- [root] provider[&quot;registry.terraform.io/hashicorp/google&quot;] (close)&#45;&gt;[root] module.instances.google_compute_instance.tf&#45;instance&#45;1 (expand) -->
<g id="edge45" class="edge">
<title>[root] provider[&quot;registry.terraform.io/hashicorp/google&quot;] (close)&#45;&gt;[root] module.instances.google_compute_instance.tf&#45;instance&#45;1 (expand)</title>
<path fill="none" stroke="black" d="M1812.04,-297.91C1531.59,-289.87 1081.67,-274.9 683.09,-252.08"/>
<polygon fill="black" stroke="black" points="683.28,-248.59 673.09,-251.51 682.88,-255.58 683.28,-248.59"/>
</g>
<!-- [root] provider[&quot;registry.terraform.io/hashicorp/google&quot;] (close)&#45;&gt;[root] module.instances.google_compute_instance.tf&#45;instance&#45;2 (expand) -->
<g id="edge46" class="edge">
<title>[root] provider[&quot;registry.terraform.io/hashicorp/google&quot;] (close)&#45;&gt;[root] module.instances.google_compute_instance.tf&#45;instance&#45;2 (expand)</title>
<path fill="none" stroke="black" d="M1857.67,-293.94C1665.04,-284.21 1380.9,-269.07 1122.53,-252.06"/>
<polygon fill="black" stroke="black" points="1122.4,-248.55 1112.19,-251.38 1121.94,-255.53 1122.4,-248.55"/>
</g>
<!-- [root] provider[&quot;registry.terraform.io/hashicorp/google&quot;] (close)&#45;&gt;[root] module.instances.google_compute_instance.tf&#45;instance&#45;610252 (expand) -->
<g id="edge47" class="edge">
<title>[root] provider[&quot;registry.terraform.io/hashicorp/google&quot;] (close)&#45;&gt;[root] module.instances.google_compute_instance.tf&#45;instance&#45;610252 (expand)</title>
<path fill="none" stroke="black" d="M1933.28,-290.33C1821.33,-279.46 1668.14,-264.58 1548.79,-253"/>
<polygon fill="black" stroke="black" points="1549.1,-249.51 1538.81,-252.03 1548.42,-256.48 1549.1,-249.51"/>
</g>
<!-- [root] provider[&quot;registry.terraform.io/hashicorp/google&quot;] (close)&#45;&gt;[root] module.instances.google_container_node_pool.gke_instance (expand) -->
<g id="edge48" class="edge">
<title>[root] provider[&quot;registry.terraform.io/hashicorp/google&quot;] (close)&#45;&gt;[root] module.instances.google_container_node_pool.gke_instance (expand)</title>
<path fill="none" stroke="black" d="M2025.1,-288.32C1989.32,-278.26 1943.53,-265.39 1905.91,-254.81"/>
<polygon fill="black" stroke="black" points="1906.6,-251.37 1896.03,-252.04 1904.71,-258.11 1906.6,-251.37"/>
</g>
<!-- [root] provider[&quot;registry.terraform.io/hashicorp/google&quot;] (close)&#45;&gt;[root] module.storage.google_storage_bucket.example&#45;variable (expand) -->
<g id="edge49" class="edge">
<title>[root] provider[&quot;registry.terraform.io/hashicorp/google&quot;] (close)&#45;&gt;[root] module.storage.google_storage_bucket.example&#45;variable (expand)</title>
<path fill="none" stroke="black" d="M2141.68,-288.23C2175.76,-278.25 2219.21,-265.52 2255.09,-255.02"/>
<polygon fill="black" stroke="black" points="2256.38,-258.29 2264.99,-252.12 2254.41,-251.57 2256.38,-258.29"/>
</g>
<!-- [root] provider[&quot;registry.terraform.io/hashicorp/google&quot;] (close)&#45;&gt;[root] module.storage.google_storage_bucket.storage&#45;bucket (expand) -->
<g id="edge50" class="edge">
<title>[root] provider[&quot;registry.terraform.io/hashicorp/google&quot;] (close)&#45;&gt;[root] module.storage.google_storage_bucket.storage&#45;bucket (expand)</title>
<path fill="none" stroke="black" d="M2223.65,-289.95C2314.72,-279.86 2436.24,-265.9 2543.43,-252 2654.75,-237.56 2682.25,-231.48 2793.43,-216 2878.15,-204.2 2973.19,-191.41 3048.69,-181.34"/>
<polygon fill="black" stroke="black" points="3049.29,-184.79 3058.74,-180 3048.36,-177.85 3049.29,-184.79"/>
</g>
<!-- [root] provider[&quot;registry.terraform.io/hashicorp/google&quot;] (close)&#45;&gt;[root] module.storage.google_storage_bucket.storage&#45;bucket&#45;example2 (expand) -->
<g id="edge51" class="edge">
<title>[root] provider[&quot;registry.terraform.io/hashicorp/google&quot;] (close)&#45;&gt;[root] module.storage.google_storage_bucket.storage&#45;bucket&#45;example2 (expand)</title>
<path fill="none" stroke="black" d="M2083.34,-287.68C2083.06,-267.91 2085.7,-235.75 2103.43,-216 2116.15,-201.83 2132.73,-191.43 2150.4,-183.81"/>
<polygon fill="black" stroke="black" points="2151.75,-187.05 2159.73,-180.08 2149.15,-180.55 2151.75,-187.05"/>
</g>
<!-- [root] root -->
<g id="node28" class="node">
<title>[root] root</title>
<ellipse fill="none" stroke="black" cx="2318.43" cy="-378" rx="58.49" ry="18"/>
<text text-anchor="middle" x="2318.43" y="-374.3" font-family="Times,serif" font-size="14.00">[root] root</text>
</g>
<!-- [root] root&#45;&gt;[root] module.databases (close) -->
<g id="edge52" class="edge">
<title>[root] root&#45;&gt;[root] module.databases (close)</title>
<path fill="none" stroke="black" d="M2375.66,-374.01C2571.03,-363.82 3215.72,-330.2 3510.71,-314.81"/>
<polygon fill="black" stroke="black" points="3511.25,-318.29 3521.06,-314.27 3510.89,-311.3 3511.25,-318.29"/>
</g>
<!-- [root] root&#45;&gt;[root] module.instances (close) -->
<g id="edge53" class="edge">
<title>[root] root&#45;&gt;[root] module.instances (close)</title>
<path fill="none" stroke="black" d="M2261.63,-373.65C2084.57,-363.2 1538.91,-330.99 1276.41,-315.5"/>
<polygon fill="black" stroke="black" points="1276.23,-311.98 1266.04,-314.89 1275.81,-318.97 1276.23,-311.98"/>
</g>
<!-- [root] root&#45;&gt;[root] module.storage (close) -->
<g id="edge54" class="edge">
<title>[root] root&#45;&gt;[root] module.storage (close)</title>
<path fill="none" stroke="black" d="M2359.24,-365.05C2396.1,-354.25 2450.94,-338.19 2493.59,-325.7"/>
<polygon fill="black" stroke="black" points="2494.71,-329.02 2503.33,-322.85 2492.75,-322.3 2494.71,-329.02"/>
</g>
<!-- [root] root&#45;&gt;[root] provider[&quot;registry.terraform.io/hashicorp/google&quot;] (close) -->
<g id="edge55" class="edge">
<title>[root] root&#45;&gt;[root] provider[&quot;registry.terraform.io/hashicorp/google&quot;] (close)</title>
<path fill="none" stroke="black" d="M2277.94,-364.89C2242.82,-354.38 2191.32,-338.98 2150.28,-326.7"/>
<polygon fill="black" stroke="black" points="2151.21,-323.32 2140.63,-323.81 2149.2,-330.03 2151.21,-323.32"/>
</g>
</g>
</svg>
